<?xml version="1.0" encoding="utf-8"?>
<!-- Generator: Adobe Illustrator 16.0.0, SVG Export Plug-In . SVG Version: 6.00 Build 0)  -->
<!DOCTYPE svg PUBLIC "-//W3C//DTD SVG 1.1//EN" "http://www.w3.org/Graphics/SVG/1.1/DTD/svg11.dtd">
<svg version="1.1" xmlns="http://www.w3.org/2000/svg" xmlns:xlink="http://www.w3.org/1999/xlink" x="0px" y="0px"
	 width="366.721px" height="93.075px" viewBox="0 0 366.721 93.075" enable-background="new 0 0 366.721 93.075"
	 xml:space="preserve">
<g id="Background" display="none">
	<radialGradient id="SVGID_1_" cx="159.3335" cy="56.7026" r="364.7225" gradientUnits="userSpaceOnUse">
		<stop  offset="0" style="stop-color:#FFFFFF"/>
		<stop  offset="1" style="stop-color:#ADADAD"/>
	</radialGradient>
	<rect x="-261.667" y="-241.297" fill="url(#SVGID_1_)" width="842" height="596"/>
	<rect x="-243.667" y="-222.297" display="inline" fill="#010202" width="783" height="558"/>
</g>
<g id="Tratteggi_contini" display="none">
	
		<line display="inline" fill="none" stroke="#9D9D9C" stroke-miterlimit="10" stroke-dasharray="3,2" x1="24.833" y1="-79.297" x2="24.833" y2="154.703"/>
	
		<line display="inline" fill="none" stroke="#9D9D9C" stroke-miterlimit="10" stroke-dasharray="3,2" x1="44.833" y1="-79.297" x2="44.833" y2="154.703"/>
	<g display="inline">
		<g>
			
				<line fill="none" stroke="#9D9D9C" stroke-miterlimit="10" stroke-dasharray="3,2" x1="-195.667" y1="5.203" x2="493.333" y2="5.203"/>
		</g>
	</g>
	<g display="inline">
		<g>
			
				<line fill="none" stroke="#9D9D9C" stroke-miterlimit="10" stroke-dasharray="3,2" x1="-195.667" y1="72.203" x2="493.333" y2="72.203"/>
		</g>
	</g>
</g>
<g id="LOGO">
	<g id="PayOff">
		<path fill="#24618A" d="M118.74,62.962h3.65v0.799h-2.725v1.385h2.392v0.755h-2.392v2.348h-0.925V62.962z"/>
		<path fill="#24618A" d="M123.01,64.42h0.792v0.74h0.015c0.097-0.406,0.6-0.844,1.118-0.844c0.192,0,0.244,0.015,0.318,0.021v0.815
			c-0.118-0.015-0.244-0.037-0.363-0.037c-0.577,0-1.036,0.467-1.036,1.31v1.822h-0.844V64.42z"/>
		<path fill="#24618A" d="M126.142,66.553c0,0.599,0.326,1.132,1.029,1.132c0.488,0,0.785-0.215,0.933-0.636h0.8
			c-0.186,0.836-0.896,1.303-1.732,1.303c-1.2,0-1.874-0.838-1.874-2.015c0-1.088,0.71-2.021,1.851-2.021
			c1.207,0,1.947,1.088,1.806,2.236H126.142z M128.111,65.999c-0.03-0.534-0.393-1.016-0.962-1.016
			c-0.585,0-0.985,0.444-1.007,1.016H128.111z"/>
		<path fill="#24618A" d="M130.257,66.553c0,0.599,0.326,1.132,1.029,1.132c0.488,0,0.785-0.215,0.933-0.636h0.8
			c-0.185,0.836-0.896,1.303-1.732,1.303c-1.2,0-1.874-0.838-1.874-2.015c0-1.088,0.71-2.021,1.852-2.021
			c1.207,0,1.946,1.088,1.806,2.236H130.257z M132.227,65.999c-0.029-0.534-0.392-1.016-0.962-1.016
			c-0.585,0-0.985,0.444-1.007,1.016H132.227z"/>
		<path fill="#24618A" d="M138.977,67.397c0,0.207,0.045,0.288,0.2,0.288c0.052,0,0.118,0,0.208-0.015v0.586
			c-0.126,0.044-0.393,0.096-0.534,0.096c-0.34,0-0.585-0.119-0.651-0.467c-0.333,0.326-0.873,0.467-1.326,0.467
			c-0.688,0-1.311-0.37-1.311-1.119c0-0.953,0.763-1.109,1.474-1.19c0.607-0.111,1.147-0.044,1.147-0.541
			c0-0.438-0.451-0.519-0.792-0.519c-0.474,0-0.807,0.192-0.844,0.607h-0.844c0.059-0.985,0.896-1.273,1.74-1.273
			c0.748,0,1.532,0.304,1.532,1.11V67.397z M138.134,66.331c-0.259,0.17-0.667,0.163-1.038,0.23
			c-0.363,0.059-0.688,0.191-0.688,0.636c0,0.378,0.481,0.488,0.778,0.488c0.37,0,0.948-0.191,0.948-0.726V66.331z"/>
		<path fill="#24618A" d="M139.887,64.42h0.799v0.562l0.015,0.016c0.252-0.423,0.688-0.682,1.192-0.682
			c0.829,0,1.355,0.444,1.355,1.302v2.63h-0.844v-2.406c-0.015-0.6-0.252-0.859-0.749-0.859c-0.562,0-0.925,0.444-0.925,1.007v2.259
			h-0.844V64.42z"/>
		<path fill="#24618A" d="M147.741,68.249h-0.8v-0.518h-0.015c-0.222,0.436-0.704,0.621-1.185,0.621
			c-1.207,0-1.792-0.896-1.792-2.043c0-1.386,0.822-1.992,1.658-1.992c0.481,0,1.015,0.178,1.273,0.6h0.015v-1.954h0.844V68.249z
			 M145.853,67.685c0.756,0,1.074-0.688,1.074-1.354c0-0.844-0.408-1.348-1.059-1.348c-0.792,0-1.073,0.704-1.073,1.392
			C144.794,67.035,145.12,67.685,145.853,67.685z"/>
		<path fill="#24618A" d="M155.617,65.605c0,1.511-0.948,2.769-2.532,2.769c-1.584,0-2.532-1.258-2.532-2.769s0.948-2.77,2.532-2.77
			C154.669,62.835,155.617,64.094,155.617,65.605z M151.478,65.605c0,1.015,0.475,2.015,1.607,2.015c1.133,0,1.607-1,1.607-2.015
			c0-1.014-0.475-2.014-1.607-2.014C151.952,63.591,151.478,64.591,151.478,65.605z"/>
		<path fill="#24618A" d="M156.363,64.42h0.8v0.519h0.014c0.237-0.438,0.696-0.622,1.185-0.622c1.207,0,1.792,0.918,1.792,2.036
			c0,1.029-0.518,1.999-1.651,1.999c-0.488,0-1.014-0.177-1.28-0.601h-0.015v1.911h-0.844V64.42z M158.251,64.983
			c-0.711,0-1.074,0.541-1.074,1.354c0,0.771,0.393,1.348,1.074,1.348c0.77,0,1.058-0.68,1.058-1.348
			C159.31,65.642,158.947,64.983,158.251,64.983z"/>
		<path fill="#24618A" d="M161.523,66.553c0,0.599,0.325,1.132,1.028,1.132c0.489,0,0.785-0.215,0.933-0.636h0.801
			c-0.186,0.836-0.896,1.303-1.733,1.303c-1.199,0-1.873-0.838-1.873-2.015c0-1.088,0.711-2.021,1.852-2.021
			c1.206,0,1.946,1.088,1.806,2.236H161.523z M163.492,65.999c-0.029-0.534-0.393-1.016-0.962-1.016
			c-0.585,0-0.985,0.444-1.007,1.016H163.492z"/>
		<path fill="#24618A" d="M164.979,64.42h0.8v0.562l0.015,0.016c0.252-0.423,0.688-0.682,1.191-0.682
			c0.83,0,1.355,0.444,1.355,1.302v2.63h-0.844v-2.406c-0.016-0.6-0.252-0.859-0.748-0.859c-0.562,0-0.926,0.444-0.926,1.007v2.259
			h-0.844V64.42z"/>
		<path fill="#24618A" d="M172.01,66.487c0,0.813,0.601,1.133,1.341,1.133c0.814,0,1.118-0.4,1.118-0.801
			c0-0.406-0.223-0.569-0.438-0.65c-0.37-0.142-0.852-0.237-1.577-0.438c-0.903-0.244-1.17-0.792-1.17-1.34
			c0-1.06,0.978-1.556,1.933-1.556c1.104,0,2.029,0.586,2.029,1.688h-0.926c-0.044-0.682-0.504-0.933-1.141-0.933
			c-0.429,0-0.97,0.155-0.97,0.688c0,0.369,0.252,0.577,0.629,0.681c0.082,0.022,1.252,0.326,1.526,0.407
			c0.695,0.207,1.028,0.801,1.028,1.348c0,1.186-1.052,1.658-2.103,1.658c-1.207,0-2.185-0.577-2.207-1.887H172.01z"/>
		<path fill="#24618A" d="M175.903,66.331c0-1.17,0.704-2.014,1.934-2.014c1.229,0,1.933,0.844,1.933,2.014
			c0,1.177-0.704,2.021-1.933,2.021C176.607,68.352,175.903,67.507,175.903,66.331z M178.924,66.331
			c0-0.659-0.333-1.348-1.088-1.348c-0.756,0-1.089,0.688-1.089,1.348c0,0.667,0.333,1.354,1.089,1.354
			C178.591,67.685,178.924,66.998,178.924,66.331z"/>
		<path fill="#24618A" d="M183.832,68.249h-0.829v-0.534h-0.015c-0.207,0.387-0.666,0.638-1.088,0.638c-1,0-1.43-0.504-1.43-1.503
			V64.42h0.845v2.348c0,0.673,0.273,0.917,0.732,0.917c0.703,0,0.94-0.452,0.94-1.043V64.42h0.844V68.249z"/>
		<path fill="#24618A" d="M184.719,64.42h0.792v0.74h0.015c0.097-0.406,0.601-0.844,1.118-0.844c0.192,0,0.244,0.015,0.318,0.021
			v0.815c-0.118-0.015-0.244-0.037-0.362-0.037c-0.578,0-1.037,0.467-1.037,1.31v1.822h-0.844V64.42z"/>
		<path fill="#24618A" d="M189.775,65.701c-0.066-0.466-0.406-0.718-0.873-0.718c-0.438,0-1.052,0.229-1.052,1.392
			c0,0.638,0.281,1.311,1.015,1.311c0.488,0,0.829-0.325,0.91-0.873h0.845c-0.155,0.992-0.77,1.54-1.755,1.54
			c-1.199,0-1.858-0.852-1.858-1.978c0-1.154,0.629-2.058,1.888-2.058c0.889,0,1.644,0.444,1.726,1.384H189.775z"/>
		<path fill="#24618A" d="M191.965,66.553c0,0.599,0.326,1.132,1.03,1.132c0.488,0,0.784-0.215,0.933-0.636h0.799
			c-0.185,0.836-0.896,1.303-1.731,1.303c-1.2,0-1.874-0.838-1.874-2.015c0-1.088,0.711-2.021,1.851-2.021
			c1.207,0,1.947,1.088,1.808,2.236H191.965z M193.935,65.999c-0.03-0.534-0.393-1.016-0.963-1.016
			c-0.585,0-0.983,0.444-1.007,1.016H193.935z"/>
		<path fill="#24618A" d="M198.206,66.487c0,0.813,0.6,1.133,1.34,1.133c0.814,0,1.118-0.4,1.118-0.801
			c0-0.406-0.222-0.569-0.438-0.65c-0.369-0.142-0.851-0.237-1.576-0.438c-0.902-0.244-1.17-0.792-1.17-1.34
			c0-1.06,0.977-1.556,1.933-1.556c1.103,0,2.028,0.586,2.028,1.688h-0.926c-0.044-0.682-0.503-0.933-1.14-0.933
			c-0.431,0-0.97,0.155-0.97,0.688c0,0.369,0.251,0.577,0.629,0.681c0.081,0.022,1.251,0.326,1.525,0.407
			c0.697,0.207,1.029,0.801,1.029,1.348c0,1.186-1.051,1.658-2.103,1.658c-1.207,0-2.185-0.577-2.207-1.887H198.206z"/>
		<path fill="#24618A" d="M202.099,66.331c0-1.17,0.702-2.014,1.933-2.014c1.228,0,1.933,0.844,1.933,2.014
			c0,1.177-0.705,2.021-1.933,2.021C202.801,68.352,202.099,67.507,202.099,66.331z M205.12,66.331c0-0.659-0.333-1.348-1.088-1.348
			c-0.756,0-1.089,0.688-1.089,1.348c0,0.667,0.333,1.354,1.089,1.354C204.787,67.685,205.12,66.998,205.12,66.331z"/>
		<path fill="#24618A" d="M206.288,64.42h0.63v-0.317c0-0.979,0.511-1.141,1.059-1.141c0.267,0,0.459,0.015,0.593,0.052v0.658
			c-0.111-0.03-0.223-0.044-0.393-0.044c-0.23,0-0.414,0.081-0.414,0.399v0.393h0.718v0.629h-0.718v3.199h-0.845v-3.199h-0.63V64.42
			z"/>
		<path fill="#24618A" d="M208.612,64.42h0.637v-1.148h0.844v1.148h0.763v0.629h-0.763v2.044c0,0.348,0.03,0.526,0.407,0.526
			c0.118,0,0.237,0,0.355-0.03v0.65c-0.185,0.017-0.362,0.046-0.548,0.046c-0.88,0-1.043-0.341-1.059-0.979v-2.258h-0.637V64.42z"/>
		<path fill="#24618A" d="M211.114,64.42h0.896l0.748,2.858h0.015l0.719-2.858h0.851l0.688,2.858h0.017l0.776-2.858h0.858
			l-1.199,3.828h-0.866l-0.711-2.844h-0.015l-0.703,2.844h-0.889L211.114,64.42z"/>
		<path fill="#24618A" d="M220.425,67.397c0,0.207,0.045,0.288,0.2,0.288c0.053,0,0.119,0,0.207-0.015v0.586
			c-0.125,0.044-0.391,0.096-0.532,0.096c-0.34,0-0.584-0.119-0.651-0.467c-0.333,0.326-0.874,0.467-1.325,0.467
			c-0.688,0-1.31-0.37-1.31-1.119c0-0.953,0.762-1.109,1.472-1.19c0.607-0.111,1.148-0.044,1.148-0.541
			c0-0.438-0.451-0.519-0.792-0.519c-0.475,0-0.808,0.192-0.845,0.607h-0.844c0.059-0.985,0.895-1.273,1.739-1.273
			c0.749,0,1.532,0.304,1.532,1.11V67.397z M219.582,66.331c-0.258,0.17-0.665,0.163-1.035,0.23
			c-0.362,0.059-0.689,0.191-0.689,0.636c0,0.378,0.481,0.488,0.778,0.488c0.369,0,0.946-0.191,0.946-0.726V66.331z"/>
		<path fill="#24618A" d="M221.335,64.42h0.793v0.74h0.014c0.098-0.406,0.6-0.844,1.119-0.844c0.192,0,0.244,0.015,0.318,0.021
			v0.815c-0.119-0.015-0.244-0.037-0.363-0.037c-0.577,0-1.037,0.467-1.037,1.31v1.822h-0.844V64.42z"/>
		<path fill="#24618A" d="M224.466,66.553c0,0.599,0.327,1.132,1.029,1.132c0.488,0,0.785-0.215,0.933-0.636h0.801
			c-0.186,0.836-0.896,1.303-1.733,1.303c-1.198,0-1.872-0.838-1.872-2.015c0-1.088,0.71-2.021,1.851-2.021
			c1.207,0,1.947,1.088,1.806,2.236H224.466z M226.437,65.999c-0.029-0.534-0.393-1.016-0.963-1.016
			c-0.585,0-0.985,0.444-1.008,1.016H226.437z"/>
		<path fill="#24618A" d="M229.596,62.962h4.279v0.799h-1.681v4.487h-0.925v-4.487h-1.674V62.962z"/>
		<path fill="#24618A" d="M233.371,66.331c0-1.17,0.704-2.014,1.933-2.014c1.229,0,1.933,0.844,1.933,2.014
			c0,1.177-0.703,2.021-1.933,2.021C234.075,68.352,233.371,67.507,233.371,66.331z M236.392,66.331
			c0-0.659-0.333-1.348-1.089-1.348s-1.088,0.688-1.088,1.348c0,0.667,0.332,1.354,1.088,1.354S236.392,66.998,236.392,66.331z"/>
		<path fill="#24618A" d="M237.759,66.331c0-1.17,0.705-2.014,1.933-2.014c1.23,0,1.933,0.844,1.933,2.014
			c0,1.177-0.702,2.021-1.933,2.021C238.464,68.352,237.759,67.507,237.759,66.331z M240.781,66.331
			c0-0.659-0.333-1.348-1.089-1.348c-0.754,0-1.088,0.688-1.088,1.348c0,0.667,0.334,1.354,1.088,1.354
			C240.448,67.685,240.781,66.998,240.781,66.331z"/>
		<path fill="#24618A" d="M242.348,62.962h0.845v5.286h-0.845V62.962z"/>
		<path fill="#24618A" d="M244.748,67.019c0.045,0.488,0.415,0.666,0.866,0.666c0.318,0,0.874-0.065,0.852-0.503
			c-0.022-0.444-0.638-0.495-1.252-0.638c-0.621-0.132-1.228-0.354-1.228-1.132c0-0.837,0.902-1.096,1.598-1.096
			c0.786,0,1.496,0.325,1.6,1.177h-0.881c-0.074-0.4-0.407-0.511-0.777-0.511c-0.244,0-0.696,0.06-0.696,0.392
			c0,0.416,0.622,0.475,1.244,0.615c0.615,0.141,1.236,0.363,1.236,1.118c0,0.911-0.919,1.244-1.709,1.244
			c-0.963,0-1.682-0.43-1.696-1.333H244.748z"/>
		<path fill="#24618A" d="M249.632,64.42h0.629v-0.317c0-0.979,0.511-1.141,1.06-1.141c0.266,0,0.458,0.015,0.592,0.052v0.658
			c-0.11-0.03-0.222-0.044-0.392-0.044c-0.23,0-0.415,0.081-0.415,0.399v0.393h0.718v0.629h-0.718v3.199h-0.845v-3.199h-0.629V64.42
			z"/>
		<path fill="#24618A" d="M252.163,66.331c0-1.17,0.705-2.014,1.933-2.014c1.23,0,1.934,0.844,1.934,2.014
			c0,1.177-0.703,2.021-1.934,2.021C252.868,68.352,252.163,67.507,252.163,66.331z M255.184,66.331
			c0-0.659-0.333-1.348-1.089-1.348c-0.754,0-1.088,0.688-1.088,1.348c0,0.667,0.334,1.354,1.088,1.354
			C254.851,67.685,255.184,66.998,255.184,66.331z"/>
		<path fill="#24618A" d="M256.731,64.42h0.793v0.74h0.014c0.097-0.406,0.601-0.844,1.119-0.844c0.191,0,0.244,0.015,0.318,0.021
			v0.815c-0.118-0.015-0.245-0.037-0.363-0.037c-0.579,0-1.037,0.467-1.037,1.31v1.822h-0.844V64.42z"/>
		<path fill="#24618A" d="M260.994,62.962h0.941l0.954,4.043h0.016l1.066-4.043h0.947l1.036,4.043h0.016l0.984-4.043h0.939
			l-1.458,5.286h-0.939l-1.06-4.044h-0.015l-1.082,4.044h-0.954L260.994,62.962z"/>
		<path fill="#24618A" d="M271.313,67.397c0,0.207,0.044,0.288,0.2,0.288c0.051,0,0.119,0,0.207-0.015v0.586
			c-0.126,0.044-0.392,0.096-0.532,0.096c-0.341,0-0.585-0.119-0.651-0.467c-0.334,0.326-0.875,0.467-1.326,0.467
			c-0.688,0-1.312-0.37-1.312-1.119c0-0.953,0.763-1.109,1.475-1.19c0.607-0.111,1.146-0.044,1.146-0.541
			c0-0.438-0.451-0.519-0.791-0.519c-0.474,0-0.807,0.192-0.844,0.607h-0.845c0.059-0.985,0.896-1.273,1.74-1.273
			c0.747,0,1.532,0.304,1.532,1.11V67.397z M270.469,66.331c-0.259,0.17-0.667,0.163-1.036,0.23
			c-0.363,0.059-0.689,0.191-0.689,0.636c0,0.378,0.481,0.488,0.777,0.488c0.371,0,0.948-0.191,0.948-0.726V66.331z"/>
		<path fill="#24618A" d="M271.837,64.42h0.637v-1.148h0.844v1.148h0.763v0.629h-0.763v2.044c0,0.348,0.03,0.526,0.407,0.526
			c0.118,0,0.237,0,0.355-0.03v0.65c-0.185,0.017-0.362,0.046-0.548,0.046c-0.88,0-1.043-0.341-1.059-0.979v-2.258h-0.637V64.42z"/>
		<path fill="#24618A" d="M275.346,66.553c0,0.599,0.325,1.132,1.03,1.132c0.488,0,0.783-0.215,0.933-0.636h0.799
			c-0.185,0.836-0.896,1.303-1.731,1.303c-1.2,0-1.875-0.838-1.875-2.015c0-1.088,0.712-2.021,1.852-2.021
			c1.207,0,1.946,1.088,1.808,2.236H275.346z M277.316,65.999c-0.03-0.534-0.393-1.016-0.963-1.016
			c-0.585,0-0.983,0.444-1.007,1.016H277.316z"/>
		<path fill="#24618A" d="M278.802,64.42h0.793v0.74h0.014c0.098-0.406,0.601-0.844,1.119-0.844c0.193,0,0.244,0.015,0.318,0.021
			v0.815c-0.118-0.015-0.244-0.037-0.362-0.037c-0.578,0-1.038,0.467-1.038,1.31v1.822h-0.844V64.42z"/>
		<path fill="#24618A" d="M283.583,62.962h2.526c1.154,0,1.746,0.533,1.746,1.429c0,1.014-0.702,1.273-0.873,1.333v0.014
			c0.317,0.044,0.785,0.281,0.785,1.118c0,0.614,0.088,1.178,0.288,1.393h-0.992c-0.141-0.229-0.141-0.518-0.141-0.778
			c0-0.97-0.199-1.398-1.051-1.398h-1.363v2.177h-0.926V62.962z M284.509,65.368h1.519c0.584,0,0.903-0.288,0.903-0.844
			c0-0.674-0.438-0.808-0.918-0.808h-1.504V65.368z"/>
		<path fill="#24618A" d="M289.335,66.553c0,0.599,0.325,1.132,1.03,1.132c0.488,0,0.784-0.215,0.933-0.636h0.799
			c-0.185,0.836-0.896,1.303-1.731,1.303c-1.2,0-1.874-0.838-1.874-2.015c0-1.088,0.711-2.021,1.851-2.021
			c1.207,0,1.947,1.088,1.808,2.236H289.335z M291.305,65.999c-0.03-0.534-0.393-1.016-0.963-1.016
			c-0.585,0-0.983,0.444-1.007,1.016H291.305z"/>
		<path fill="#24618A" d="M293.429,67.019c0.044,0.488,0.414,0.666,0.866,0.666c0.318,0,0.873-0.065,0.853-0.503
			c-0.023-0.444-0.638-0.495-1.253-0.638c-0.622-0.132-1.229-0.354-1.229-1.132c0-0.837,0.904-1.096,1.601-1.096
			c0.784,0,1.495,0.325,1.599,1.177h-0.881c-0.073-0.4-0.407-0.511-0.778-0.511c-0.244,0-0.695,0.06-0.695,0.392
			c0,0.416,0.622,0.475,1.244,0.615c0.614,0.141,1.236,0.363,1.236,1.118c0,0.911-0.918,1.244-1.711,1.244
			c-0.963,0-1.68-0.43-1.695-1.333H293.429z"/>
		<path fill="#24618A" d="M296.456,66.331c0-1.17,0.704-2.014,1.933-2.014c1.229,0,1.933,0.844,1.933,2.014
			c0,1.177-0.703,2.021-1.933,2.021C297.16,68.352,296.456,67.507,296.456,66.331z M299.477,66.331c0-0.659-0.334-1.348-1.089-1.348
			s-1.088,0.688-1.088,1.348c0,0.667,0.333,1.354,1.088,1.354S299.477,66.998,299.477,66.331z"/>
		<path fill="#24618A" d="M304.384,68.249h-0.829v-0.534h-0.014c-0.208,0.387-0.668,0.638-1.089,0.638c-1,0-1.431-0.504-1.431-1.503
			V64.42h0.845v2.348c0,0.673,0.274,0.917,0.732,0.917c0.705,0,0.942-0.452,0.942-1.043V64.42h0.843V68.249z"/>
		<path fill="#24618A" d="M305.272,64.42h0.793v0.74h0.014c0.097-0.406,0.6-0.844,1.118-0.844c0.192,0,0.245,0.015,0.319,0.021
			v0.815c-0.119-0.015-0.245-0.037-0.363-0.037c-0.579,0-1.037,0.467-1.037,1.31v1.822h-0.844V64.42z"/>
		<path fill="#24618A" d="M310.328,65.701c-0.066-0.466-0.407-0.718-0.873-0.718c-0.438,0-1.053,0.229-1.053,1.392
			c0,0.638,0.281,1.311,1.016,1.311c0.489,0,0.829-0.325,0.91-0.873h0.845c-0.156,0.992-0.771,1.54-1.755,1.54
			c-1.199,0-1.858-0.852-1.858-1.978c0-1.154,0.629-2.058,1.887-2.058c0.889,0,1.645,0.444,1.727,1.384H310.328z"/>
		<path fill="#24618A" d="M312.519,66.553c0,0.599,0.325,1.132,1.027,1.132c0.49,0,0.786-0.215,0.934-0.636h0.799
			c-0.184,0.836-0.895,1.303-1.732,1.303c-1.197,0-1.872-0.838-1.872-2.015c0-1.088,0.711-2.021,1.852-2.021
			c1.207,0,1.946,1.088,1.806,2.236H312.519z M314.489,65.999c-0.03-0.534-0.394-1.016-0.963-1.016
			c-0.586,0-0.985,0.444-1.007,1.016H314.489z"/>
		<path fill="#24618A" d="M318.135,62.962h1.305l1.458,4.139h0.015l1.422-4.139h1.288v5.286h-0.881v-4.081h-0.016l-1.465,4.081
			h-0.763l-1.467-4.081h-0.015v4.081h-0.882V62.962z"/>
		<path fill="#24618A" d="M327.819,67.397c0,0.207,0.044,0.288,0.2,0.288c0.052,0,0.118,0,0.206-0.015v0.586
			c-0.125,0.044-0.392,0.096-0.532,0.096c-0.341,0-0.585-0.119-0.652-0.467c-0.332,0.326-0.873,0.467-1.325,0.467
			c-0.688,0-1.31-0.37-1.31-1.119c0-0.953,0.763-1.109,1.473-1.19c0.607-0.111,1.148-0.044,1.148-0.541
			c0-0.438-0.451-0.519-0.793-0.519c-0.474,0-0.808,0.192-0.845,0.607h-0.844c0.061-0.985,0.896-1.273,1.74-1.273
			c0.748,0,1.533,0.304,1.533,1.11V67.397z M326.974,66.331c-0.259,0.17-0.666,0.163-1.036,0.23
			c-0.362,0.059-0.688,0.191-0.688,0.636c0,0.378,0.481,0.488,0.777,0.488c0.369,0,0.947-0.191,0.947-0.726V66.331z"/>
		<path fill="#24618A" d="M328.728,64.42h0.799v0.562l0.017,0.016c0.251-0.423,0.688-0.682,1.19-0.682
			c0.83,0,1.355,0.444,1.355,1.302v2.63h-0.844v-2.406c-0.016-0.6-0.251-0.859-0.748-0.859c-0.562,0-0.926,0.444-0.926,1.007v2.259
			h-0.844V64.42z"/>
		<path fill="#24618A" d="M336.183,67.397c0,0.207,0.044,0.288,0.2,0.288c0.051,0,0.118,0,0.207-0.015v0.586
			c-0.126,0.044-0.394,0.096-0.533,0.096c-0.342,0-0.586-0.119-0.652-0.467c-0.333,0.326-0.873,0.467-1.325,0.467
			c-0.688,0-1.311-0.37-1.311-1.119c0-0.953,0.763-1.109,1.475-1.19c0.606-0.111,1.146-0.044,1.146-0.541
			c0-0.438-0.451-0.519-0.792-0.519c-0.474,0-0.807,0.192-0.845,0.607h-0.844c0.06-0.985,0.896-1.273,1.741-1.273
			c0.746,0,1.532,0.304,1.532,1.11V67.397z M335.339,66.331c-0.26,0.17-0.668,0.163-1.038,0.23
			c-0.362,0.059-0.688,0.191-0.688,0.636c0,0.378,0.481,0.488,0.777,0.488c0.371,0,0.949-0.191,0.949-0.726V66.331z"/>
		<path fill="#24618A" d="M340.631,68.048c0,1.147-0.674,1.718-1.881,1.718c-0.77,0-1.637-0.296-1.71-1.192h0.844
			c0.104,0.481,0.488,0.563,0.918,0.563c0.681,0,0.984-0.348,0.984-0.979v-0.584h-0.015c-0.237,0.421-0.674,0.674-1.146,0.674
			c-1.215,0-1.719-0.918-1.719-2.015c0-1.028,0.644-1.917,1.732-1.917c0.481,0,0.919,0.2,1.133,0.629h0.015V64.42h0.845V68.048z
			 M339.787,66.25c0-0.659-0.296-1.267-1.029-1.267c-0.747,0-1.007,0.696-1.007,1.333c0,0.629,0.305,1.267,1.007,1.267
			C339.505,67.583,339.787,66.901,339.787,66.25z"/>
		<path fill="#24618A" d="M342.139,66.553c0,0.599,0.327,1.132,1.03,1.132c0.488,0,0.784-0.215,0.933-0.636h0.801
			c-0.187,0.836-0.897,1.303-1.733,1.303c-1.2,0-1.873-0.838-1.873-2.015c0-1.088,0.71-2.021,1.85-2.021
			c1.207,0,1.948,1.088,1.808,2.236H342.139z M344.109,65.999c-0.028-0.534-0.392-1.016-0.963-1.016
			c-0.583,0-0.983,0.444-1.007,1.016H344.109z"/>
		<path fill="#24618A" d="M345.596,64.42h0.8v0.533h0.022c0.252-0.378,0.57-0.637,1.177-0.637c0.468,0,0.904,0.2,1.075,0.637
			c0.281-0.393,0.644-0.637,1.198-0.637c0.808,0,1.28,0.355,1.28,1.288v2.644h-0.844v-2.236c0-0.607-0.037-1.029-0.695-1.029
			c-0.57,0-0.814,0.378-0.814,1.022v2.243h-0.844v-2.458c0-0.526-0.163-0.808-0.675-0.808c-0.438,0-0.836,0.354-0.836,0.992v2.273
			h-0.845V64.42z"/>
		<path fill="#24618A" d="M352.695,66.553c0,0.599,0.327,1.132,1.029,1.132c0.488,0,0.785-0.215,0.933-0.636h0.8
			c-0.185,0.836-0.896,1.303-1.732,1.303c-1.199,0-1.872-0.838-1.872-2.015c0-1.088,0.709-2.021,1.85-2.021
			c1.207,0,1.948,1.088,1.806,2.236H352.695z M354.665,65.999c-0.029-0.534-0.392-1.016-0.963-1.016
			c-0.585,0-0.984,0.444-1.007,1.016H354.665z"/>
		<path fill="#24618A" d="M356.152,64.42h0.799v0.562l0.016,0.016c0.251-0.423,0.688-0.682,1.191-0.682
			c0.829,0,1.355,0.444,1.355,1.302v2.63h-0.845v-2.406c-0.014-0.6-0.251-0.859-0.746-0.859c-0.563,0-0.926,0.444-0.926,1.007v2.259
			h-0.845V64.42z"/>
		<path fill="#24618A" d="M360.015,64.42h0.638v-1.148h0.844v1.148h0.762v0.629h-0.762v2.044c0,0.348,0.029,0.526,0.407,0.526
			c0.118,0,0.237,0,0.354-0.03v0.65c-0.185,0.017-0.363,0.046-0.548,0.046c-0.881,0-1.044-0.341-1.058-0.979v-2.258h-0.638V64.42z"
			/>
	</g>
	<g>
		<path fill="#24618A" d="M14.378,72.534l1.497-0.274c0.444-0.104,0.898-0.202,1.354-0.3c-2.796-2.526-5.217-5.461-7.145-8.725
			c1.608-0.357,4.435-0.953,8.192-1.555c1.363,3.428,3.057,6.339,4.847,8.788c0.649-0.19,1.354-0.392,2.081-0.589
			c0.11-0.035,0.225-0.071,0.335-0.107c-2.009-2.587-3.652-5.404-4.911-8.451c3.388-0.488,7.361-0.958,11.761-1.271
			c0.438,2.221,0.976,4.507,1.617,6.852c0.234-0.089,0.463-0.175,0.704-0.268c0.301-0.116,0.956-0.365,0.956-0.365
			c0.187-0.067,0.374-0.138,0.561-0.206c-0.57-2.105-1.051-4.164-1.454-6.167c4.596-0.265,9.602-0.349,14.834-0.142
			c-0.084,0.431-0.176,0.863-0.269,1.298l0.402-0.121c0.499-0.152,0.997-0.304,1.494-0.447c0.133-0.037,0.387-0.11,0.676-0.193
			c0.027-0.139,0.057-0.278,0.083-0.415c0.364,0.021,0.734,0.051,1.099,0.074c0.164-0.046,0.27-0.076,0.27-0.076
			c0.534-0.163,1.092-0.283,1.584-0.389c0.207-0.046,0.414-0.089,0.619-0.138c0,0,1.444-0.3,2.124-0.441
			c0.747-0.156,1.479-0.305,2.245-0.401l0.464-0.062c0.235-0.032,0.477-0.065,0.714-0.097c-2.938-0.371-5.842-0.545-8.688-0.713
			c0.724-4.268,1.092-7.93,1.21-11.93h13.215c-0.091,5-0.737,8.502-1.917,12.33c0.791-0.046,1.61-0.04,2.467-0.075
			c1.043-3.603,1.714-7.255,1.81-12.255h10.203c-0.143,5-1.112,8.839-2.761,12.851c0.812,0.149,1.59,0.25,2.35,0.416
			c1.795-4.516,2.794-9.458,2.794-14.607c0-21.846-17.774-39.628-39.616-39.628c-21.848,0-39.622,17.766-39.622,39.611
			C2.556,55.369,7.087,65.344,14.378,72.534z M19.774,59.156c-1.41-4.134-2.17-8.453-2.277-13.453h13.224
			c0.117,4,0.494,7.82,1.237,12.155C27.376,58.198,23.256,58.642,19.774,59.156z M17.498,43.703c0.107-5,0.867-9.681,2.277-13.818
			c3.389,0.502,7.384,1.116,11.822,1.455c-0.562,3.611-0.927,7.363-0.915,12.363H17.498z M31.996,28.594
			c-4.242-0.317-8.083-0.766-11.368-1.238c1.937-4.68,4.753-8.824,8.456-12.406c1.949,0.3,4.177,0.581,6.615,0.786
			c-1.176,2.956-2.331,6.501-3.242,10.617C32.292,27.072,32.141,27.822,31.996,28.594z M38.189,15.907
			c1.662,0.101,3.397,0.157,5.185,0.157c0.929,0,1.879-0.02,2.833-0.053c1.215,2.973,2.442,6.606,3.383,10.856
			c0.149,0.652,0.289,1.337,0.418,2.036c-5.536,0.239-10.812,0.14-15.635-0.148c0.116-0.598,0.233-1.193,0.362-1.76
			C35.687,22.645,36.945,18.931,38.189,15.907z M50.047,57.505c-5.559-0.239-10.862-0.087-15.716,0.194
			c-0.744-4.278-1.125-7.997-1.247-11.997h18.181C51.148,49.703,50.775,53.281,50.047,57.505z M33.045,43.703
			c-0.011-5,0.356-8.79,0.915-12.342c3.091,0.193,6.356,0.172,9.762,0.172c2.178,0,4.416,0.153,6.688,0.05
			c0.556,3.516,0.909,7.12,0.898,12.12H33.045z M52.391,28.773c-0.157-0.834-0.326-1.642-0.494-2.42
			c-0.898-4.042-2.026-7.54-3.184-10.464c2.211-0.145,4.473-0.384,6.747-0.754c3.667,3.593,6.452,7.754,8.358,12.44
			C59.946,28.165,56.12,28.549,52.391,28.773z M53.671,43.703c0.009-5-0.342-8.746-0.887-12.317
			c3.871-0.24,7.844-0.514,11.865-1.141c1.358,4.074,2.101,8.458,2.199,13.458H53.671z M79.411,43.703H69.208
			c-0.108-6-0.952-10.04-2.24-13.979c2.819-0.502,5.66-0.978,8.484-1.713C77.83,32.718,79.236,37.703,79.411,43.703z M74.287,25.467
			c-2.712,0.69-5.43,1.26-8.131,1.729c-2.111-5.388-5.039-9.518-7.891-12.575c1.572-0.323,3.146-0.716,4.71-1.176
			C67.586,16.559,71.452,20.674,74.287,25.467z M60.213,11.755c-1.325,0.331-2.656,0.612-3.986,0.851
			c-2.13-1.974-4.239-3.505-6.104-4.666C53.709,8.726,57.096,10.02,60.213,11.755z M53.174,13.069
			c-1.83,0.233-3.646,0.391-5.435,0.483c-1.084-2.468-2.131-4.408-2.951-5.8C46.656,8.602,49.828,10.279,53.174,13.069z
			 M45.181,13.645c-2.062,0.042-4.056,0.003-5.968-0.087c1.162-2.513,2.237-4.374,2.964-5.533
			C42.914,9.194,44.003,11.089,45.181,13.645z M36.675,13.397c-1.875-0.138-3.641-0.329-5.253-0.536
			c3.254-2.667,6.314-4.279,8.142-5.11C38.759,9.11,37.737,11.002,36.675,13.397z M34.224,7.94
			c-1.799,1.125-3.832,2.597-5.895,4.472c-1.59-0.258-2.952-0.519-4.035-0.75C27.369,9.976,30.707,8.711,34.224,7.94z
			 M21.394,13.437c0.817,0.208,2.501,0.609,4.837,1.036c-2.866,3.036-5.816,7.143-7.956,12.522
			c-3.757-0.601-6.583-1.191-8.192-1.558C12.916,20.646,16.79,16.542,21.394,13.437z M8.904,27.863
			c1.418,0.334,4.399,1.126,8.546,1.797c-1.329,3.982-2.193,8.042-2.308,14.042h-10.2C5.117,37.703,6.525,32.568,8.904,27.863z
			 M4.942,45.703h10.2c0.115,5,0.979,9.833,2.308,13.813c-4.145,0.675-7.128,1.373-8.546,1.709
			C6.525,56.518,5.117,51.703,4.942,45.703z"/>
	</g>
	<path fill="#27A5D9" d="M3.315,75.995c0,0,15.583,0.672,38.753-9.276c11.126-4.778,33.104-11.975,47.46-0.344
		c1.354,1.097-9.359-3.77-37.208,7.951C27.08,84.949,11.032,82.486,3.315,75.995z"/>
	<path fill="#27A5D9" d="M19.099,83.292c0,0,15.053,1.565,38.223-8.386c11.126-4.778,34.111-11.564,47.909-1.291
		c1.398,1.041-9.292-2.887-37.142,8.833C42.849,93.071,26.815,89.784,19.099,83.292z"/>
	<radialGradient id="SVGID_2_" cx="46.8433" cy="69.5981" r="30.9719" gradientUnits="userSpaceOnUse">
		<stop  offset="0" style="stop-color:#FFFFFF"/>
		<stop  offset="0.098" style="stop-color:#F4FAFD;stop-opacity:0.9412"/>
		<stop  offset="0.272" style="stop-color:#D5EEF8;stop-opacity:0.8368"/>
		<stop  offset="0.5018" style="stop-color:#A4DAEF;stop-opacity:0.6989"/>
		<stop  offset="0.7752" style="stop-color:#61BEE3;stop-opacity:0.5349"/>
		<stop  offset="1" style="stop-color:#25A5D8;stop-opacity:0.4"/>
	</radialGradient>
	<path opacity="0.6" fill="url(#SVGID_2_)" d="M43.73,69.838c9.881-4.242,28.8-10.451,42.869-3.417
		c2.467,0.121,3.384,0.426,2.93,0.06c-14.235-11.532-36.538-4.332-47.57,0.405C18.985,76.751,4.046,76.02,4.046,76.02
		c1.307,1.1,2.863,2.079,4.657,2.9C14.091,78.638,26.699,77.151,43.73,69.838z"/>
	
		<radialGradient id="SVGID_3_" cx="62.7925" cy="77.4302" r="30.4959" gradientTransform="matrix(0.993 0 0 0.993 -0.8506 0.6509)" gradientUnits="userSpaceOnUse">
		<stop  offset="0" style="stop-color:#FFFFFF"/>
		<stop  offset="0.098" style="stop-color:#F4FAFD;stop-opacity:0.9412"/>
		<stop  offset="0.272" style="stop-color:#D5EEF8;stop-opacity:0.8368"/>
		<stop  offset="0.5018" style="stop-color:#A4DAEF;stop-opacity:0.6989"/>
		<stop  offset="0.7752" style="stop-color:#61BEE3;stop-opacity:0.5349"/>
		<stop  offset="1" style="stop-color:#25A5D8;stop-opacity:0.4"/>
	</radialGradient>
	<path opacity="0.6" fill="url(#SVGID_3_)" d="M23.241,84.96c0,0,14.948,1.555,37.955-8.326c9.683-4.159,28.409-9.847,42.114-4.321
		c-13.828-8.32-35.111-1.984-45.66,2.548c-23.008,9.881-37.956,8.327-37.956,8.327c1.661,1.396,3.711,2.644,6.157,3.633
		C24.896,86.242,24.023,85.619,23.241,84.96z"/>
	<radialGradient id="SVGID_4_" cx="48.4927" cy="70.7808" r="29.6598" gradientUnits="userSpaceOnUse">
		<stop  offset="0" style="stop-color:#FFFFFF"/>
		<stop  offset="0.098" style="stop-color:#F4FAFD;stop-opacity:0.9412"/>
		<stop  offset="0.272" style="stop-color:#D5EEF8;stop-opacity:0.8368"/>
		<stop  offset="0.5018" style="stop-color:#A4DAEF;stop-opacity:0.6989"/>
		<stop  offset="0.7752" style="stop-color:#61BEE3;stop-opacity:0.5349"/>
		<stop  offset="1" style="stop-color:#25A5D8;stop-opacity:0.4"/>
	</radialGradient>
	<path opacity="0.6" fill="url(#SVGID_4_)" d="M89.529,66.481c-1.638-1.327-3.386-2.396-5.209-3.26
		c1.395,0.749,2.74,1.628,4.018,2.664c0.454,0.366-0.462,0.062-2.93-0.06C71.339,58.792,52.42,65,42.54,69.243
		c-17.032,7.313-29.64,8.801-35.027,9.082c-0.058-0.025-0.11-0.056-0.167-0.083c0.437,0.236,0.889,0.465,1.358,0.679
		c5.388-0.282,17.996-1.77,35.027-9.082c9.881-4.242,28.8-10.451,42.869-3.417C89.066,66.542,89.982,66.847,89.529,66.481z"/>
	<radialGradient id="SVGID_5_" cx="63.0474" cy="77.9263" r="28.1929" gradientUnits="userSpaceOnUse">
		<stop  offset="0" style="stop-color:#FFFFFF"/>
		<stop  offset="0.098" style="stop-color:#F4FAFD;stop-opacity:0.9412"/>
		<stop  offset="0.272" style="stop-color:#D5EEF8;stop-opacity:0.8368"/>
		<stop  offset="0.5018" style="stop-color:#A4DAEF;stop-opacity:0.6989"/>
		<stop  offset="0.7752" style="stop-color:#61BEE3;stop-opacity:0.5349"/>
		<stop  offset="1" style="stop-color:#25A5D8;stop-opacity:0.4"/>
	</radialGradient>
	<path opacity="0.6" fill="url(#SVGID_5_)" d="M102.079,72.971c-14.068-7.034-32.987-0.826-42.868,3.416
		c-17.032,7.313-29.64,8.801-35.027,9.082c-0.057-0.025-0.11-0.056-0.167-0.082c0.437,0.235,0.888,0.464,1.358,0.678
		c5.388-0.281,17.996-1.769,35.027-9.082C70.282,72.741,88.867,66.458,102.079,72.971z"/>
	<g id="WAT">
		<path fill="#27A5D9" d="M301.865,16.703l-11.152,40h-7.687l-6.068-30.106l-6.123,30.106h-7.743l-11.21-40h8.378l6.645,27.679
			l5.779-27.679h8.552l5.663,27.625l5.952-24.59c0.692-2.022,2.021-3.035,4.047-3.035H301.865z"/>
		<path fill="#27A5D9" d="M320.379,16.703l14.101,40h-8.495l-2.602-9h-15.196l-2.6,9h-8.609l13.116-37.047
			c0.578-1.733,1.849-2.953,3.812-2.953H320.379z M310.326,40.703h10.805l-5.432-16.699L310.326,40.703z"/>
		<path fill="#27A5D9" d="M335.52,16.703h27.813v7.018l-12,0.006v32.976h-8V23.73l-12,0.009v-2.926
			C331.333,18.558,333.269,16.703,335.52,16.703z"/>
		<g opacity="0.6">
			<radialGradient id="SVGID_6_" cx="272.5503" cy="30.5151" r="10.1477" gradientUnits="userSpaceOnUse">
				<stop  offset="0" style="stop-color:#FFFFFF"/>
				<stop  offset="0.098" style="stop-color:#F4FAFD;stop-opacity:0.9412"/>
				<stop  offset="0.272" style="stop-color:#D5EEF8;stop-opacity:0.8368"/>
				<stop  offset="0.5018" style="stop-color:#A4DAEF;stop-opacity:0.6989"/>
				<stop  offset="0.7752" style="stop-color:#61BEE3;stop-opacity:0.5349"/>
				<stop  offset="1" style="stop-color:#25A5D8;stop-opacity:0.4"/>
			</radialGradient>
			<polygon fill="url(#SVGID_6_)" points="270.667,44.328 276.445,16.703 272.683,16.703 268.655,35.973 			"/>
			<radialGradient id="SVGID_7_" cx="294.7964" cy="30.4878" r="10.5927" gradientUnits="userSpaceOnUse">
				<stop  offset="0" style="stop-color:#FFFFFF"/>
				<stop  offset="0.098" style="stop-color:#F4FAFD;stop-opacity:0.9412"/>
				<stop  offset="0.272" style="stop-color:#D5EEF8;stop-opacity:0.8368"/>
				<stop  offset="0.5018" style="stop-color:#A4DAEF;stop-opacity:0.6989"/>
				<stop  offset="0.7752" style="stop-color:#61BEE3;stop-opacity:0.5349"/>
				<stop  offset="1" style="stop-color:#25A5D8;stop-opacity:0.4"/>
			</radialGradient>
			<path fill="url(#SVGID_7_)" d="M290.66,44.273l5.952-24.562c0.694-2.022,2.022-3.009,4.047-3.009h-3.762
				c-2.026,0-3.354,0.986-4.047,3.009l-3.915,16.16L290.66,44.273z"/>
			<radialGradient id="SVGID_8_" cx="282.8101" cy="41.5474" r="11.0795" gradientUnits="userSpaceOnUse">
				<stop  offset="0" style="stop-color:#FFFFFF"/>
				<stop  offset="0.098" style="stop-color:#F4FAFD;stop-opacity:0.9412"/>
				<stop  offset="0.272" style="stop-color:#D5EEF8;stop-opacity:0.8368"/>
				<stop  offset="0.5018" style="stop-color:#A4DAEF;stop-opacity:0.6989"/>
				<stop  offset="0.7752" style="stop-color:#61BEE3;stop-opacity:0.5349"/>
				<stop  offset="1" style="stop-color:#25A5D8;stop-opacity:0.4"/>
			</radialGradient>
			<polygon fill="url(#SVGID_8_)" points="278.832,35.48 283.026,56.703 286.789,56.703 280.721,26.393 			"/>
			<radialGradient id="SVGID_9_" cx="259.3677" cy="36.7026" r="15.1004" gradientUnits="userSpaceOnUse">
				<stop  offset="0" style="stop-color:#FFFFFF"/>
				<stop  offset="0.098" style="stop-color:#F4FAFD;stop-opacity:0.9412"/>
				<stop  offset="0.272" style="stop-color:#D5EEF8;stop-opacity:0.8368"/>
				<stop  offset="0.5018" style="stop-color:#A4DAEF;stop-opacity:0.6989"/>
				<stop  offset="0.7752" style="stop-color:#61BEE3;stop-opacity:0.5349"/>
				<stop  offset="1" style="stop-color:#25A5D8;stop-opacity:0.4"/>
			</radialGradient>
			<polygon fill="url(#SVGID_9_)" points="251.881,16.703 263.091,56.703 266.854,56.703 255.643,16.703 			"/>
		</g>
		<g>
			<radialGradient id="SVGID_10_" cx="321.6714" cy="32.48" r="6.4034" gradientUnits="userSpaceOnUse">
				<stop  offset="0" style="stop-color:#FFFFFF"/>
				<stop  offset="0.098" style="stop-color:#F4FAFD;stop-opacity:0.9412"/>
				<stop  offset="0.272" style="stop-color:#D5EEF8;stop-opacity:0.8368"/>
				<stop  offset="0.5018" style="stop-color:#A4DAEF;stop-opacity:0.6989"/>
				<stop  offset="0.7752" style="stop-color:#61BEE3;stop-opacity:0.5349"/>
				<stop  offset="1" style="stop-color:#25A5D8;stop-opacity:0.4"/>
			</radialGradient>
			<polygon fill="url(#SVGID_10_)" points="320.033,24.257 317.877,30.828 321.13,40.703 325.465,40.703 			"/>
			<radialGradient id="SVGID_11_" cx="326.8511" cy="52.2026" r="4.0172" gradientUnits="userSpaceOnUse">
				<stop  offset="0" style="stop-color:#FFFFFF"/>
				<stop  offset="0.098" style="stop-color:#F4FAFD;stop-opacity:0.9412"/>
				<stop  offset="0.272" style="stop-color:#D5EEF8;stop-opacity:0.8368"/>
				<stop  offset="0.5018" style="stop-color:#A4DAEF;stop-opacity:0.6989"/>
				<stop  offset="0.7752" style="stop-color:#61BEE3;stop-opacity:0.5349"/>
				<stop  offset="1" style="stop-color:#25A5D8;stop-opacity:0.4"/>
			</radialGradient>
			<polygon fill="url(#SVGID_11_)" points="323.383,47.703 325.985,56.703 330.319,56.703 327.717,47.703 			"/>
			<radialGradient id="SVGID_12_" cx="307.6089" cy="36.7026" r="16.0162" gradientUnits="userSpaceOnUse">
				<stop  offset="0" style="stop-color:#FFFFFF"/>
				<stop  offset="0.098" style="stop-color:#F4FAFD;stop-opacity:0.9412"/>
				<stop  offset="0.272" style="stop-color:#D5EEF8;stop-opacity:0.8368"/>
				<stop  offset="0.5018" style="stop-color:#A4DAEF;stop-opacity:0.6989"/>
				<stop  offset="0.7752" style="stop-color:#61BEE3;stop-opacity:0.5349"/>
				<stop  offset="1" style="stop-color:#25A5D8;stop-opacity:0.4"/>
			</radialGradient>
			<path fill="url(#SVGID_12_)" d="M318.241,16.703h-4.334c-1.964,0-3.234,1.22-3.812,2.953l-13.116,37.047h4.334l13.116-37.047
				C315.006,17.922,316.277,16.703,318.241,16.703z"/>
		</g>
		<g>
			<radialGradient id="SVGID_13_" cx="335.2964" cy="20.2207" r="3.7476" gradientUnits="userSpaceOnUse">
				<stop  offset="0" style="stop-color:#FFFFFF"/>
				<stop  offset="0.098" style="stop-color:#F4FAFD;stop-opacity:0.9412"/>
				<stop  offset="0.272" style="stop-color:#D5EEF8;stop-opacity:0.8368"/>
				<stop  offset="0.5018" style="stop-color:#A4DAEF;stop-opacity:0.6989"/>
				<stop  offset="0.7752" style="stop-color:#61BEE3;stop-opacity:0.5349"/>
				<stop  offset="1" style="stop-color:#25A5D8;stop-opacity:0.4"/>
			</radialGradient>
			<path fill="url(#SVGID_13_)" d="M335.333,20.812c0-2.255,1.675-4.11,3.927-4.11h-3.729c-2.251,0-4.197,1.855-4.197,4.11v2.926
				l4-0.003V20.812z"/>
			<radialGradient id="SVGID_14_" cx="345.3335" cy="40.2163" r="11.7431" gradientUnits="userSpaceOnUse">
				<stop  offset="0" style="stop-color:#FFFFFF"/>
				<stop  offset="0.098" style="stop-color:#F4FAFD;stop-opacity:0.9412"/>
				<stop  offset="0.272" style="stop-color:#D5EEF8;stop-opacity:0.8368"/>
				<stop  offset="0.5018" style="stop-color:#A4DAEF;stop-opacity:0.6989"/>
				<stop  offset="0.7752" style="stop-color:#61BEE3;stop-opacity:0.5349"/>
				<stop  offset="1" style="stop-color:#25A5D8;stop-opacity:0.4"/>
			</radialGradient>
			<rect x="343.333" y="23.733" fill="url(#SVGID_14_)" width="4" height="32.97"/>
		</g>
	</g>
	<path fill="#24618A" d="M137.748,39.703h-10.415v17h-8v-35.89c0-2.254,1.137-4.11,3.391-4.11h24.609v8h-20v8h14v2.938
		C141.333,37.894,140.001,39.703,137.748,39.703z"/>
	<path fill="#24618A" d="M176.291,37.049c1.677,0.578,2.948,1.502,3.757,2.717c0.692,1.329,1.04,3.293,1.213,5.836l0.347,8.093
		c0.059,1.212,0.521,2.008,1.271,3.008h-8.841c-0.405-1-0.577-1.968-0.635-2.777c-0.174-0.579-0.289-3-0.347-6.813
		c-0.29-4.738-1.156-6.409-5.894-6.409h-7.829v16h-8v-35.89c0-2.254,1.036-4.11,3.289-4.11h14.91
		c8.147,0,12.653,3.066,12.653,11.155C182.185,32.829,180.047,36.01,176.291,37.049z M168.548,24.703h-9.215v9h8.753
		c3.813,0,5.951-0.696,5.951-4.509C174.038,25.61,172.13,24.703,168.548,24.703z"/>
	<path fill="#24618A" d="M187.333,20.812c0-2.716,0.922-4.11,3.637-4.11h24.363v8h-20v8h15v2.938c0,2.716-1.506,4.062-4.339,4.062
		h-10.661v10h20v7h-28V20.812z"/>
	<path fill="#24618A" d="M219.333,20.812c0-2.716,1.516-4.11,4.229-4.11h23.771v8h-20v8h15v2.938c0,2.716-0.913,4.062-3.743,4.062
		h-11.257v10h20v7h-28V20.812z"/>
	<g>
		<path fill="#27A5D9" d="M123.018,74.946v1.1h-3.142v1.275h2.884v1.017h-2.884v1.46h3.208v1.1h-4.518v-5.951H123.018z"/>
		<path fill="#27A5D9" d="M128.345,80.442c-0.451,0.393-1.074,0.588-1.868,0.588c-0.806,0-1.429-0.194-1.871-0.583
			c-0.442-0.39-0.663-0.989-0.663-1.801v-3.7h1.309v3.7c0,0.161,0.014,0.319,0.042,0.476c0.028,0.155,0.086,0.293,0.176,0.412
			c0.088,0.119,0.211,0.217,0.371,0.292c0.158,0.075,0.371,0.113,0.637,0.113c0.466,0,0.788-0.104,0.966-0.313
			c0.178-0.208,0.268-0.534,0.268-0.979v-3.7h1.308v3.7C129.019,79.452,128.794,80.05,128.345,80.442z"/>
		<path fill="#27A5D9" d="M133.771,74.946v2.283h2.41v-2.283h1.308v5.951h-1.308V78.33h-2.41v2.567h-1.308v-5.951H133.771z"/>
		<path fill="#27A5D9" d="M138.58,76.708c0.133-0.382,0.325-0.713,0.575-0.997c0.25-0.282,0.557-0.506,0.921-0.666
			c0.364-0.162,0.774-0.242,1.23-0.242c0.46,0,0.872,0.08,1.232,0.242c0.362,0.16,0.667,0.384,0.917,0.666
			c0.25,0.284,0.442,0.615,0.576,0.997c0.132,0.38,0.2,0.793,0.2,1.237c0,0.434-0.068,0.838-0.2,1.213
			c-0.134,0.375-0.326,0.701-0.576,0.98c-0.25,0.276-0.556,0.495-0.917,0.653c-0.36,0.158-0.772,0.237-1.232,0.237
			c-0.456,0-0.867-0.079-1.23-0.237c-0.364-0.158-0.671-0.377-0.921-0.653c-0.25-0.279-0.442-0.605-0.575-0.98
			c-0.134-0.375-0.2-0.779-0.2-1.213C138.38,77.501,138.446,77.088,138.58,76.708z M139.775,78.676
			c0.058,0.235,0.151,0.448,0.279,0.637s0.295,0.34,0.5,0.454c0.206,0.113,0.456,0.172,0.751,0.172c0.294,0,0.544-0.059,0.75-0.172
			c0.205-0.114,0.372-0.266,0.5-0.454s0.221-0.401,0.279-0.637c0.058-0.237,0.087-0.48,0.087-0.73c0-0.261-0.029-0.515-0.087-0.759
			s-0.151-0.463-0.279-0.654c-0.128-0.192-0.295-0.344-0.5-0.458c-0.206-0.114-0.456-0.171-0.75-0.171
			c-0.295,0-0.545,0.057-0.751,0.171c-0.205,0.114-0.372,0.266-0.5,0.458c-0.128,0.191-0.221,0.41-0.279,0.654
			s-0.087,0.498-0.087,0.759C139.688,78.196,139.717,78.439,139.775,78.676z"/>
		<path fill="#27A5D9" d="M148.333,74.946c0.267,0,0.507,0.043,0.721,0.129c0.213,0.086,0.396,0.203,0.55,0.354
			c0.152,0.148,0.269,0.323,0.35,0.521c0.081,0.197,0.121,0.41,0.121,0.638c0,0.35-0.074,0.653-0.221,0.908
			c-0.147,0.256-0.388,0.45-0.721,0.584v0.016c0.161,0.046,0.294,0.113,0.4,0.205c0.105,0.092,0.192,0.2,0.258,0.324
			c0.066,0.126,0.115,0.263,0.146,0.413c0.031,0.15,0.051,0.3,0.062,0.45c0.006,0.095,0.012,0.206,0.017,0.334
			c0.005,0.128,0.016,0.258,0.03,0.392c0.013,0.134,0.036,0.261,0.066,0.379c0.03,0.12,0.077,0.221,0.137,0.305h-1.308
			c-0.072-0.189-0.118-0.414-0.134-0.676s-0.042-0.511-0.074-0.75c-0.045-0.312-0.14-0.539-0.284-0.684
			c-0.145-0.145-0.382-0.217-0.708-0.217h-1.309v2.326h-1.309v-5.951H148.333z M147.866,77.637c0.3,0,0.525-0.066,0.676-0.2
			c0.15-0.134,0.224-0.35,0.224-0.649c0-0.289-0.074-0.499-0.224-0.629c-0.15-0.132-0.376-0.197-0.676-0.197h-1.434v1.676H147.866z"
			/>
		<path fill="#27A5D9" d="M152.45,74.946v5.951h-1.308v-5.951H152.45z"/>
		<path fill="#27A5D9" d="M156.409,76.045h-2.942v-1.1h4.684v1.033l-3.192,3.818h3.275v1.1h-5.018v-1.034L156.409,76.045z"/>
		<path fill="#27A5D9" d="M158.943,76.708c0.134-0.382,0.326-0.713,0.576-0.997c0.25-0.282,0.557-0.506,0.921-0.666
			c0.364-0.162,0.773-0.242,1.229-0.242c0.461,0,0.872,0.08,1.233,0.242c0.361,0.16,0.666,0.384,0.916,0.666
			c0.25,0.284,0.442,0.615,0.576,0.997c0.134,0.38,0.2,0.793,0.2,1.237c0,0.434-0.066,0.838-0.2,1.213s-0.326,0.701-0.576,0.98
			c-0.25,0.276-0.555,0.495-0.916,0.653s-0.772,0.237-1.233,0.237c-0.456,0-0.865-0.079-1.229-0.237s-0.671-0.377-0.921-0.653
			c-0.25-0.279-0.442-0.605-0.576-0.98s-0.2-0.779-0.2-1.213C158.743,77.501,158.81,77.088,158.943,76.708z M160.14,78.676
			c0.059,0.235,0.15,0.448,0.279,0.637c0.127,0.188,0.294,0.34,0.5,0.454c0.205,0.113,0.455,0.172,0.75,0.172
			c0.294,0,0.544-0.059,0.75-0.172c0.205-0.114,0.372-0.266,0.5-0.454s0.221-0.401,0.279-0.637c0.059-0.237,0.088-0.48,0.088-0.73
			c0-0.261-0.029-0.515-0.088-0.759s-0.151-0.463-0.279-0.654c-0.128-0.192-0.295-0.344-0.5-0.458
			c-0.206-0.114-0.456-0.171-0.75-0.171c-0.295,0-0.545,0.057-0.75,0.171c-0.206,0.114-0.373,0.266-0.5,0.458
			c-0.129,0.191-0.221,0.41-0.279,0.654s-0.088,0.498-0.088,0.759C160.052,78.196,160.082,78.439,160.14,78.676z"/>
		<path fill="#27A5D9" d="M166.787,74.946l2.484,3.992h0.016v-3.992h1.227v5.951h-1.309l-2.476-3.984h-0.017v3.984h-1.226v-5.951
			H166.787z"/>
		<path fill="#27A5D9" d="M173.831,76.375c0.09-0.286,0.222-0.536,0.399-0.75c0.179-0.214,0.403-0.38,0.672-0.5
			c0.27-0.12,0.58-0.179,0.93-0.179c0.267,0,0.521,0.041,0.763,0.124c0.241,0.084,0.454,0.203,0.638,0.359
			c0.184,0.155,0.329,0.347,0.438,0.574c0.107,0.229,0.162,0.484,0.162,0.768c0,0.294-0.047,0.547-0.142,0.758
			c-0.094,0.212-0.22,0.399-0.374,0.563c-0.156,0.164-0.333,0.312-0.53,0.445s-0.396,0.267-0.596,0.396s-0.395,0.271-0.584,0.421
			c-0.188,0.15-0.355,0.324-0.5,0.524h2.76v1.018h-4.285c0-0.34,0.049-0.634,0.146-0.884c0.097-0.25,0.229-0.475,0.396-0.671
			c0.167-0.198,0.362-0.379,0.588-0.546c0.225-0.167,0.462-0.337,0.712-0.509c0.128-0.089,0.264-0.18,0.409-0.271
			c0.145-0.092,0.275-0.192,0.396-0.303c0.12-0.112,0.22-0.237,0.3-0.376s0.121-0.297,0.121-0.476c0-0.282-0.081-0.504-0.245-0.663
			c-0.164-0.158-0.375-0.237-0.631-0.237c-0.172,0-0.317,0.041-0.437,0.121c-0.12,0.082-0.216,0.187-0.287,0.316
			c-0.072,0.132-0.125,0.275-0.155,0.434c-0.03,0.159-0.045,0.315-0.045,0.471h-1.134C173.703,76.971,173.742,76.661,173.831,76.375
			z"/>
		<path fill="#27A5D9" d="M178.386,76.525c0.114-0.387,0.268-0.695,0.463-0.93c0.194-0.233,0.421-0.399,0.68-0.5
			c0.258-0.1,0.531-0.149,0.82-0.149c0.295,0,0.571,0.05,0.829,0.149c0.259,0.101,0.486,0.267,0.685,0.5
			c0.196,0.234,0.352,0.543,0.466,0.93c0.114,0.386,0.171,0.862,0.171,1.43c0,0.583-0.057,1.07-0.171,1.463
			c-0.114,0.391-0.27,0.704-0.466,0.938c-0.198,0.232-0.426,0.4-0.685,0.5c-0.258,0.101-0.534,0.15-0.829,0.15
			c-0.289,0-0.562-0.05-0.82-0.15c-0.259-0.1-0.485-0.268-0.68-0.5c-0.195-0.233-0.349-0.547-0.463-0.938
			c-0.113-0.393-0.171-0.88-0.171-1.463C178.215,77.387,178.273,76.911,178.386,76.525z M179.416,78.558
			c0.011,0.236,0.046,0.464,0.104,0.685c0.059,0.22,0.151,0.406,0.279,0.562c0.128,0.154,0.311,0.233,0.55,0.233
			c0.244,0,0.432-0.079,0.563-0.233c0.13-0.156,0.225-0.343,0.282-0.562c0.06-0.221,0.093-0.448,0.104-0.685
			c0.011-0.235,0.017-0.437,0.017-0.604c0-0.1-0.001-0.221-0.004-0.362s-0.014-0.289-0.033-0.438
			c-0.02-0.15-0.048-0.299-0.084-0.445c-0.036-0.147-0.09-0.279-0.161-0.396c-0.073-0.116-0.164-0.211-0.276-0.283
			c-0.111-0.071-0.247-0.109-0.408-0.109s-0.296,0.038-0.404,0.109c-0.108,0.072-0.197,0.167-0.267,0.283
			c-0.069,0.117-0.124,0.249-0.162,0.396c-0.04,0.146-0.066,0.295-0.084,0.445c-0.017,0.149-0.025,0.297-0.029,0.438
			c-0.002,0.142-0.003,0.263-0.003,0.362C179.4,78.122,179.404,78.323,179.416,78.558z"/>
		<path fill="#27A5D9" d="M183.1,76.375c0.088-0.286,0.222-0.536,0.399-0.75s0.401-0.38,0.671-0.5
			c0.271-0.12,0.579-0.179,0.93-0.179c0.268,0,0.521,0.041,0.763,0.124c0.242,0.084,0.455,0.203,0.637,0.359
			c0.185,0.155,0.329,0.347,0.438,0.574c0.108,0.229,0.162,0.484,0.162,0.768c0,0.294-0.047,0.547-0.141,0.758
			c-0.096,0.212-0.22,0.399-0.376,0.563c-0.155,0.164-0.332,0.312-0.529,0.445s-0.396,0.267-0.596,0.396
			c-0.2,0.13-0.395,0.271-0.583,0.421c-0.189,0.15-0.355,0.324-0.5,0.524h2.758v1.018h-4.283c0-0.34,0.049-0.634,0.145-0.884
			c0.098-0.25,0.229-0.475,0.397-0.671c0.166-0.198,0.362-0.379,0.587-0.546c0.226-0.167,0.463-0.337,0.713-0.509
			c0.128-0.089,0.264-0.18,0.408-0.271c0.144-0.092,0.276-0.192,0.396-0.303c0.118-0.112,0.219-0.237,0.3-0.376
			c0.08-0.139,0.121-0.297,0.121-0.476c0-0.282-0.083-0.504-0.247-0.663c-0.163-0.158-0.373-0.237-0.629-0.237
			c-0.172,0-0.318,0.041-0.437,0.121c-0.12,0.082-0.217,0.187-0.289,0.316c-0.072,0.132-0.123,0.275-0.153,0.434
			c-0.031,0.159-0.047,0.315-0.047,0.471h-1.134C182.972,76.971,183.01,76.661,183.1,76.375z"/>
		<path fill="#27A5D9" d="M187.656,76.525c0.113-0.387,0.268-0.695,0.462-0.93c0.194-0.233,0.422-0.399,0.68-0.5
			c0.258-0.1,0.532-0.149,0.821-0.149c0.294,0,0.57,0.05,0.829,0.149c0.259,0.101,0.486,0.267,0.684,0.5
			c0.197,0.234,0.353,0.543,0.467,0.93c0.114,0.386,0.171,0.862,0.171,1.43c0,0.583-0.057,1.07-0.171,1.463
			c-0.114,0.391-0.27,0.704-0.467,0.938c-0.197,0.232-0.425,0.4-0.684,0.5c-0.259,0.101-0.535,0.15-0.829,0.15
			c-0.289,0-0.563-0.05-0.821-0.15c-0.258-0.1-0.485-0.268-0.68-0.5c-0.194-0.233-0.349-0.547-0.462-0.938
			c-0.114-0.393-0.172-0.88-0.172-1.463C187.484,77.387,187.542,76.911,187.656,76.525z M188.684,78.558
			c0.012,0.236,0.046,0.464,0.105,0.685c0.058,0.22,0.15,0.406,0.278,0.562c0.128,0.154,0.312,0.233,0.551,0.233
			c0.244,0,0.432-0.079,0.562-0.233c0.13-0.156,0.225-0.343,0.283-0.562c0.059-0.221,0.093-0.448,0.104-0.685
			c0.012-0.235,0.018-0.437,0.018-0.604c0-0.1-0.002-0.221-0.004-0.362c-0.003-0.142-0.015-0.289-0.033-0.438
			c-0.021-0.15-0.048-0.299-0.084-0.445c-0.036-0.147-0.09-0.279-0.162-0.396c-0.073-0.116-0.164-0.211-0.275-0.283
			c-0.111-0.071-0.248-0.109-0.408-0.109c-0.161,0-0.297,0.038-0.404,0.109c-0.109,0.072-0.198,0.167-0.268,0.283
			c-0.069,0.117-0.123,0.249-0.162,0.396c-0.039,0.146-0.066,0.295-0.083,0.445c-0.018,0.149-0.026,0.297-0.029,0.438
			s-0.004,0.263-0.004,0.362C188.668,78.122,188.673,78.323,188.684,78.558z"/>
		<path fill="#27A5D9" d="M197.519,74.946c0.374,0,0.689,0.053,0.951,0.162c0.261,0.108,0.474,0.251,0.638,0.43
			c0.164,0.178,0.284,0.38,0.358,0.607c0.075,0.229,0.112,0.465,0.112,0.709c0,0.239-0.037,0.474-0.112,0.704
			c-0.074,0.23-0.194,0.436-0.358,0.613s-0.377,0.32-0.638,0.429c-0.262,0.108-0.577,0.163-0.951,0.163h-1.374v2.134h-1.31v-5.951
			H197.519z M197.162,77.746c0.15,0,0.295-0.011,0.434-0.032c0.138-0.023,0.262-0.065,0.366-0.131
			c0.106-0.062,0.19-0.153,0.255-0.27c0.063-0.117,0.096-0.27,0.096-0.459c0-0.188-0.032-0.341-0.096-0.459
			c-0.064-0.116-0.148-0.206-0.255-0.271c-0.104-0.063-0.229-0.107-0.366-0.129c-0.139-0.022-0.283-0.034-0.434-0.034h-1.017v1.784
			H197.162z"/>
		<path fill="#27A5D9" d="M201.396,76.587v0.8h0.017c0.056-0.134,0.13-0.257,0.226-0.371c0.095-0.113,0.202-0.21,0.324-0.292
			c0.122-0.08,0.253-0.143,0.393-0.187c0.14-0.045,0.283-0.066,0.434-0.066c0.078,0,0.164,0.014,0.258,0.042v1.1
			c-0.056-0.012-0.122-0.021-0.2-0.03c-0.077-0.008-0.152-0.012-0.224-0.012c-0.218,0-0.4,0.036-0.552,0.108
			c-0.148,0.072-0.27,0.171-0.362,0.296c-0.091,0.125-0.156,0.271-0.195,0.438c-0.04,0.167-0.059,0.347-0.059,0.542v1.942h-1.184
			v-4.31H201.396z"/>
		<path fill="#27A5D9" d="M203.388,77.808c0.106-0.28,0.256-0.52,0.45-0.716c0.195-0.198,0.428-0.352,0.7-0.46
			c0.272-0.107,0.578-0.161,0.916-0.161c0.34,0,0.646,0.054,0.923,0.161c0.275,0.108,0.509,0.262,0.703,0.46
			c0.195,0.196,0.344,0.436,0.451,0.716c0.104,0.28,0.158,0.594,0.158,0.938c0,0.346-0.054,0.656-0.158,0.934
			c-0.107,0.278-0.256,0.516-0.451,0.713c-0.194,0.198-0.428,0.349-0.703,0.455c-0.276,0.105-0.583,0.158-0.923,0.158
			c-0.338,0-0.644-0.053-0.916-0.158c-0.272-0.106-0.505-0.257-0.7-0.455c-0.194-0.197-0.344-0.435-0.45-0.713
			c-0.105-0.277-0.158-0.588-0.158-0.934C203.23,78.402,203.283,78.088,203.388,77.808z M204.464,79.25
			c0.032,0.164,0.091,0.312,0.17,0.441c0.081,0.131,0.188,0.235,0.32,0.313c0.135,0.077,0.3,0.116,0.5,0.116
			c0.201,0,0.37-0.039,0.505-0.116c0.138-0.078,0.244-0.183,0.325-0.313c0.081-0.13,0.138-0.277,0.172-0.441
			c0.033-0.164,0.05-0.333,0.05-0.505s-0.017-0.342-0.05-0.508c-0.034-0.167-0.091-0.314-0.172-0.442
			c-0.081-0.127-0.188-0.231-0.325-0.312c-0.135-0.08-0.304-0.121-0.505-0.121c-0.2,0-0.365,0.041-0.5,0.121
			c-0.133,0.081-0.239,0.186-0.32,0.312c-0.079,0.128-0.138,0.275-0.17,0.442c-0.034,0.166-0.052,0.336-0.052,0.508
			S204.43,79.086,204.464,79.25z"/>
		<path fill="#27A5D9" d="M208.106,81.429c0.122,0,0.229-0.022,0.321-0.069c0.092-0.048,0.137-0.152,0.137-0.312v-4.46h1.185v4.518
			c0,0.223-0.023,0.413-0.071,0.576c-0.048,0.16-0.128,0.295-0.24,0.404c-0.114,0.107-0.271,0.188-0.463,0.242
			c-0.195,0.051-0.442,0.079-0.742,0.079c-0.14,0-0.266-0.012-0.376-0.035v-0.975C207.917,81.417,208.001,81.429,208.106,81.429z
			 M208.564,75.919v-0.974h1.185v0.974H208.564z"/>
		<path fill="#27A5D9" d="M212.042,79.863c0.177,0.173,0.433,0.259,0.767,0.259c0.238,0,0.445-0.06,0.617-0.18
			c0.172-0.119,0.276-0.245,0.316-0.379h1.042c-0.168,0.517-0.424,0.887-0.768,1.108c-0.345,0.224-0.761,0.334-1.25,0.334
			c-0.339,0-0.645-0.055-0.918-0.163c-0.271-0.108-0.502-0.263-0.69-0.463s-0.335-0.438-0.438-0.716
			c-0.104-0.278-0.154-0.584-0.154-0.918c0-0.322,0.052-0.622,0.158-0.9c0.105-0.277,0.256-0.518,0.45-0.721
			c0.195-0.202,0.427-0.362,0.695-0.479c0.27-0.116,0.568-0.174,0.896-0.174c0.366,0,0.687,0.069,0.959,0.212
			c0.272,0.142,0.495,0.332,0.67,0.57c0.176,0.24,0.303,0.512,0.379,0.817c0.079,0.307,0.107,0.626,0.084,0.959h-3.109
			C211.766,79.414,211.863,79.691,212.042,79.863z M213.378,77.595c-0.142-0.154-0.356-0.233-0.646-0.233
			c-0.188,0-0.345,0.032-0.47,0.097c-0.125,0.063-0.226,0.143-0.3,0.237c-0.076,0.094-0.128,0.194-0.158,0.3
			c-0.031,0.105-0.049,0.2-0.056,0.284h1.926C213.619,77.979,213.521,77.751,213.378,77.595z"/>
		<path fill="#27A5D9" d="M217.617,77.362c-0.188,0-0.347,0.044-0.475,0.13c-0.128,0.087-0.232,0.197-0.313,0.333
			c-0.08,0.137-0.137,0.286-0.171,0.451c-0.032,0.163-0.05,0.325-0.05,0.487c0,0.154,0.018,0.313,0.05,0.475
			c0.034,0.161,0.089,0.308,0.163,0.438c0.074,0.13,0.177,0.237,0.305,0.32s0.284,0.125,0.466,0.125
			c0.284,0,0.502-0.079,0.655-0.237c0.152-0.158,0.249-0.371,0.287-0.639h1.142c-0.077,0.573-0.3,1.01-0.666,1.31
			c-0.367,0.3-0.837,0.45-1.409,0.45c-0.322,0-0.619-0.055-0.888-0.163c-0.27-0.108-0.499-0.26-0.687-0.455
			c-0.19-0.193-0.338-0.425-0.442-0.695c-0.107-0.27-0.158-0.564-0.158-0.888c0-0.333,0.048-0.643,0.146-0.93
			c0.097-0.286,0.24-0.533,0.429-0.74c0.188-0.21,0.419-0.372,0.692-0.489c0.272-0.116,0.582-0.174,0.934-0.174
			c0.256,0,0.501,0.032,0.737,0.1c0.236,0.066,0.446,0.168,0.634,0.304c0.187,0.136,0.337,0.306,0.455,0.508
			c0.116,0.204,0.183,0.444,0.199,0.722h-1.159C218.414,77.61,218.124,77.362,217.617,77.362z"/>
		<path fill="#27A5D9" d="M222.709,76.587v0.792h-0.866v2.134c0,0.2,0.034,0.333,0.1,0.4c0.066,0.065,0.2,0.1,0.4,0.1
			c0.066,0,0.13-0.002,0.192-0.008c0.06-0.006,0.118-0.015,0.174-0.026v0.918c-0.1,0.017-0.212,0.028-0.332,0.032
			c-0.124,0.006-0.242,0.01-0.358,0.01c-0.184,0-0.358-0.013-0.521-0.038c-0.165-0.024-0.309-0.073-0.435-0.146
			c-0.124-0.072-0.224-0.176-0.295-0.309c-0.072-0.134-0.108-0.308-0.108-0.525v-2.542h-0.718v-0.792h0.718v-1.292h1.184v1.292
			H222.709z"/>
	</g>
</g>
</svg>
